<svg xmlns="http://www.w3.org/2000/svg" viewBox="0 0 496 512"><!--!Font Awesome Free 6.5.2 by @fontawesome - https://fontawesome.com License - https://fontawesome.com/license/free Copyright 2024 Fonticons, Inc.--><path d="M248 8C111 8 0 119 0 256s111 248 248 248 248-111 248-248S385 8 248 8zm143.8 285.2C375.3 358.5 315.8 404.8 248 404.8s-127.3-46.3-143.8-111.6c-1.7-7.4 2.5-15.7 9.9-17.4 7.4-1.7 15.7 2.5 17.4 9.9 14.1 52.9 62 90.1 116.6 90.1s102.5-37.2 116.6-90.1c1.7-7.4 9.9-12.4 17.4-9.9 7.4 1.7 12.4 9.9 9.9 17.4z"/></svg>